<svg version="1.1" viewBox="0 0 550.31 545.62" xmlns="http://www.w3.org/2000/svg"><path style="fill:#454a9940" d="m249.92 544.63c-84.649-8.7848-160.9-58.59-205.3-123.95-2.1001-3.092-5.3614-8.4762-7.2741-11.929-24.328-43.916-33.715-90.37-34.017-133.49-1.3507-192.86 209.96-350.07 404.94-241.36 257.68 143.66 134.45 541.12-158.35 510.73zm58.667-13.518c261.82-30.627 315.01-392.07 72.979-495.99-263.97-113.34-488.63 218.21-288.42 422.86 10.877 11.118 14.664 15.107 21.912 19.512 2.6914 1.6356 10.355 6.6751 17.03 11.199 51.351 34.8 113.65 49.772 176.5 42.42zm-59.685-6.5711c-14.034-1.4568-15.356-1.7228-28.586-5.7506-5.9297-1.8052-12.469-3.7278-14.531-4.2723-10.607-2.8006-25.061-8.1166-30.469-11.206-3.3516-1.9147-7.7812-3.7829-9.8438-4.1516-33.542-5.9958-100.11-73.527-119.6-121.34-1.5798-3.8747-3.8539-9.1779-5.0536-11.785-3.0742-6.6804-6.3871-17.571-9.8233-32.291-1.6249-6.9609-3.3604-14.344-3.8566-16.406-3.4846-14.483-4.4534-53.997-1.793-73.125 0.82019-5.8969 4.047-23.586 5.4727-30 3.1677-14.252 12.548-41.851 16.09-47.344 0.83148-1.2891 2.4604-4.6009 3.6197-7.3596 2.9304-6.9729 16.123-27.84 24.007-37.974 12.491-16.055 20.974-25.398 27.656-30.462 1.8047-1.3676 6.0234-5.2572 9.375-8.6437 5.6507-5.7096 8.5849-8.0936 13.375-10.867 2.4487-1.4178 8.5303-5.7857 12.262-8.807 3.2738-2.6504 28.039-16.825 29.395-16.825 0.47098 0 3.7853-1.4843 7.3651-3.2984 8.0028-4.0555 20.265-8.3575 29.149-10.226 3.6715-0.77232 8.306-2.0136 10.299-2.7584 3.1646-1.1826 12.281-2.9547 37.209-7.2328 14.799-2.5398 46.369-1.4055 69.539 2.4986 7.5024 1.2641 11.833 2.1041 26.401 5.1213 4.3177 0.89427 16.119 5.1838 25.873 9.4042 3.485 1.5079 6.9795 2.7416 7.7655 2.7416 1.818 0 9.3156 3.7884 14.731 7.4435 2.2985 1.5512 6.2434 3.7052 8.7666 4.7867 2.5232 1.0815 5.3032 2.6139 6.178 3.4054 0.87473 0.79151 4.3034 3.1871 7.6194 5.3236 13.835 8.9138 17.203 11.26 20.321 14.154 1.8047 1.6746 4.251 3.6892 5.4363 4.4769 7.8084 5.189 26.661 24.933 37.839 39.629 4.697 6.1751 16.724 24.294 16.724 25.195 0 0.311 2.3321 4.7778 5.1825 9.9261 23.372 42.215 35.265 111.28 26.319 152.85-4.4616 20.728-5.5427 25.486-7.3494 32.344-2.4554 9.32-7.4988 23.648-10.725 30.469-1.3414 2.8359-3.4329 7.6575-4.6476 10.715-2.7318 6.8748-11.4 22.295-15.272 27.167-1.5851 1.9946-2.882 3.9684-2.882 4.3864s-2.0391 3.2102-4.5314 6.205c-2.4923 2.9948-5.6062 7.13-6.9199 9.1893-8.0833 12.672-36.522 39.456-54.479 51.309-3.6992 2.4418-8.3373 5.5243-10.307 6.8499-4.405 2.9648-27.355 14.492-28.853 14.492-0.59804 0-3.2481 1.2179-5.889 2.7065-5.4758 3.0865-25.232 9.9458-31.475 10.928-2.2954 0.36114-5.9963 1.438-8.2242 2.393-14.5 6.2154-58.34 9.1829-88.86 6.0147zm25.789-5.5223c0-2.5113-10.043-5.1872-10.918-2.9088-0.72346 1.8853-0.17858 2.3806 3.6045 3.2766 4.9117 1.1632 7.3132 1.0425 7.3132-0.36772zm-20.625-0.51866c0-1.7497-5.9132-5.0267-9.2426-5.1222-5.0458-0.14468-4.8142 3.0503 0.3364 4.6411 4.6038 1.4219 8.9062 1.6543 8.9062 0.48111zm40.122 0.0734c1.6521-1.048-0.19836-2.4935-4.1476-3.2401-3.6596-0.6918-7.323 1.5412-5.0374 3.0706 1.6968 1.1354 7.4936 1.2423 9.185 0.16944zm21.45-1.6381c0.80931-2.109-1.4792-3.3368-5.2041-2.792-3.7821 0.5532-4.2733 0.94756-3.5447 2.8462 0.78326 2.0411 7.9618 1.9967 8.7488-0.0542zm-81.917-1.9048c0.79963-0.79964-3.1576-3.8252-7.227-5.5255-4.3639-1.8233-5.2412-1.7444-5.2412 0.47133 0 3.1475 10.229 7.2938 12.468 5.0542zm100.42-1.8508c2.2454-0.86164 1.7864-3.1828-0.62645-3.1682-3.5792 0.0217-6.3281 1.0818-6.3281 2.4403 0 1.351 4.1883 1.7894 6.9546 0.72786zm-121.84-4.0482c1.2868-2.082-1.5921-5.517-4.988-5.9517-6.072-0.77724-6.266 2.8109-0.28618 5.2932 4.141 1.719 4.5846 1.7744 5.2742 0.65847zm140.67-1.9452c0-1.0125-1.2468-1.4863-4.4531-1.692-3.9955-0.25638-4.4531-0.0825-4.4531 1.692 0 1.7745 0.45759 1.9484 4.4531 1.692 3.2063-0.20573 4.4531-0.67946 4.4531-1.692zm-36.094-1.3756c4.8984-0.72642 12.281-2.2024 16.406-3.28s9.1875-2.3984 11.25-2.9353 5.8594-1.6442 8.4375-2.4609c4.2418-1.3437 6.3394-2.1868 16.079-6.4635 1.6248-0.71343 3.4516-1.2972 4.0595-1.2972 3.0748 0 27.126-13.127 31.893-17.406 2.3054-2.0699 7.1203-5.0048 12.656-7.7144 12.03-5.8882 15.674-13.698 8.9279-19.135-5.9172-4.7693-7.5217-8.6208-7.5217-18.056 0-6.8828-3.3097-6.2863-13.393 2.4137-3.6199 3.1233-7.5605 6.0508-8.7569 6.5057-2.1788 0.82839-8.787 5.0383-15.819 10.078-4.4643 3.1994-21.925 12.377-23.548 12.377-0.62563 0-4.4426 1.44-8.4822 3.2001-8.9357 3.8933-29.205 9.9235-33.374 9.9287-1.6684 2e-3 -7.0412 0.65393-11.94 1.4486-23.081 3.7443-57.408 0.90186-79.442-6.578-5.0335-1.7087-12.105-3.8215-15.714-4.695-3.6094-0.87351-8.4609-2.6657-10.781-3.9826-2.3203-1.3169-6.75-3.6293-9.8438-5.1387-3.0938-1.5094-6.2578-3.1346-7.0312-3.6116-0.77344-0.47699-3.5156-1.9798-6.0938-3.3396-2.5781-1.3598-5.9531-3.3666-7.5-4.4596-1.5469-1.093-3.9525-2.6209-5.3459-3.3954-1.3934-0.7745-5.7917-4.1084-9.7741-7.4086-10.58-8.768-14.486-10.379-12.5-5.1554 3.0186 7.9395 0.49556 20.344-5.207 25.601-6.2785 5.7874-6.0458 6.2083 8.6465 15.639 15.537 9.9735 17.493 11.141 22.271 13.292 2.5974 1.1696 5.7773 2.7746 7.0663 3.5668 1.2891 0.79217 3.8203 2.0821 5.625 2.8666 1.8047 0.78445 4.9688 2.1702 7.0312 3.0794 9.9189 4.3727 13.587 5.6425 19.219 6.652 3.3516 0.60085 8.8359 1.9363 12.188 2.9677s8.625 2.6505 11.719 3.5981 9.6328 2.2013 14.531 2.7861c4.8984 0.58481 11.859 1.4375 15.469 1.8949 9.0221 1.1433 47.718 0.23035 58.594-1.3825zm55.118-4.9525c-0.44558-2.2015-7.6769-2.1396-9.9013 0.0847-1.4496 1.4496-1.153 1.5559 4.3387 1.5559 5.1154 0 5.8507-0.21687 5.5626-1.6406zm-182.62-1.0625c0-1.8878-3.3775-3.3455-4.2985-1.8553-0.71261 1.153 1.3369 3.6209 3.0071 3.6209 0.7103 0 1.2915-0.79455 1.2915-1.7657zm197.81-6.7636c0-1.4284-6.3144-0.96946-6.8783 0.4999-0.28401 0.74013-0.0127 1.5193 0.60282 1.7316 1.5101 0.52067 6.2755-1.1738 6.2755-2.2315zm-213.75 0.70577c0-1.6492-2.7927-4.1102-5.1223-4.5138-2.9889-0.51786-2.8833 2.6304 0.14319 4.2711 3.299 1.7884 4.9791 1.8703 4.9791 0.24274zm-14.232-6.8978c-0.30965-1.6079-7.6699-7.7788-9.278-7.7788-2.4179 0-0.75628 5.7186 2.1822 7.5103 3.864 2.3559 7.5244 2.4945 7.0957 0.26853zm243.39-0.82313c0.81501-0.81501 1.221-1.9039 0.90219-2.4197-1.0693-1.7302-7.8751 0.9306-7.8751 3.0788 0 1.4112 5.4144 0.89935 6.9729-0.65912zm-261.04-8.4085c0-2.2561-2.5757-6.6932-4.2608-7.3398-4.8532-1.8623-5.3898 0.3313-1.296 5.2978 2.9853 3.6217 5.5568 4.5667 5.5568 2.042zm277.12-1.9353c3.5401-1.6799 4.1735-3.1744 1.3454-3.1744-2.539 0-8.4989 2.9437-7.9051 3.9045 0.73931 1.1962 3.0399 0.94018 6.5597-0.73006zm-290.69-7.9032c1.5661-2.534-5.3707-9.3338-9.5219-9.3338-5.5026 0-5.0598 1.5989 1.8969 6.8496 4.7339 3.573 6.5803 4.1746 7.625 2.4841zm178.57-2.6137c2.3203-0.57362 6.9609-1.4836 10.312-2.0221 12.911-2.0746 19.735-3.5704 20.972-4.5973 0.70756-0.58722 3.4449-1.7086 6.083-2.4921 2.6381-0.78343 6.8056-2.4176 9.2612-3.6315 2.4556-1.2139 8.0506-3.9421 12.433-6.0627 11.259-5.4478 24.84-13.523 24.609-14.633-0.69536-3.34-7.4866-1.3053-19.557 5.8594-9.2763 5.5063-31.611 14.272-43.49 17.069-1.8047 0.42487-6.8672 1.6466-11.25 2.7149-27.619 6.7322-51.48 6.027-90.938-2.6876-10.872-2.4011-21.066-6.7844-42.928-18.458-7.4649-3.986-15.045-5.7657-15.162-3.56-0.0469 0.87871 2.0871 2.1667 14.966 9.0329 5.1363 2.7384 5.9572 3.2059 12.188 6.9406 4.1624 2.4951 15.397 7.0407 19.688 7.966 1.8047 0.38916 8.3438 2.2767 14.531 4.1945 16.997 5.2682 64.024 7.8919 78.281 4.3673zm126.09-1.0951c1.347-1.4884 1.4156-1.875 0.3328-1.875-1.4705 0-3.614 1.7794-3.614 3 0 1.3284 1.5382 0.80099 3.2812-1.125zm-141.45-10.357c1.4203-0.54 4.3026-2.5675 6.4051-4.5055s5.1294-4.2956 6.7266-5.239c1.5971-0.94344 3.5898-2.8765 4.4281-4.2957 0.83834-1.4192 3.0897-3.9548 5.003-5.6347 6.8849-6.045 24.664-33.178 24.664-37.642 7.9e-4 -5.7625-3.847-7.7837-5.6734-2.98-1.6586 4.3625-6.5139 2.463-6.5139-2.5483 0-3.5264-3.3506-1.9302-6.5565 3.1236-12.125 19.113-16.218 24.485-20.419 26.797-3.027 1.6659-6.2047 0.74536-7.5395-2.1841-2.7931-6.1303-12.057-5.8896-17.899 0.46509-8.5224 9.2701-17.335 1.8855-30.208-25.312-1.0982-2.3203-2.4435-5.0625-2.9896-6.0938-2.6654-5.0334-5.1008-10.717-6.2262-14.531-0.68467-2.3203-1.8485-6.1172-2.5862-8.4375-0.73775-2.3203-1.5787-6.3281-1.8687-8.9062-0.73276-6.5137-1.3668-7.0312-8.6133-7.0312-8.3749 0-10.39 1.3999-9.7723 6.7884 0.53295 4.648 5.6124 26.552 6.7959 29.305 0.44322 1.0312 2.4333 5.6719 4.4224 10.312 7.2418 16.895 18.073 31.258 33.582 44.531 4.5186 3.8672 9.7888 8.3913 11.712 10.054 5.611 4.851 16.077 6.6451 23.127 3.9645zm-10.754-2.4817c-6.0071-2.3937-9.7442-14.827-5.4794-18.23 1.8797-1.4998 3.5568-3.9933 4.2564-6.3281 1.6527-5.5163 4.9632-5.458 7.4557 0.13129 0.97725 2.1914 3.3173 5.8173 5.2001 8.0574 4.4288 5.2694 4.4097 5.3724-2.1579 11.669-5.3977 5.1754-6.5796 5.7743-9.2748 4.7002zm4.5177-11.04c3.297-3.5095-1.0658-7.4672-4.4742-4.0587-1.9152 1.9152-0.7178 6.375 1.7116 6.375 0.32262 0 1.5658-1.0423 2.7626-2.3163zm-23.716-5.0022c-2.2056-2.4371 0.35699-6.3461 3.1724-4.8393 2.1919 1.173 2.4172 5.1654 0.3366 5.9638-1.9513 0.74877-1.7577 0.81079-3.509-1.1244zm36.724-1.528c-1.6398-3.599-0.44746-5.216 3.846-5.216 3.2892 0 3.84 0.31261 4.3864 2.4896 1.1874 4.7311-6.2038 7.1789-8.2325 2.7264zm-47.133-6.6892c-2.9027-2.9027-1.2939-5.7181 2.6954-4.7169 2.6214 0.65793 3.7743 3.1206 2.2953 4.9027-1.4066 1.6949-3.1758 1.629-4.9907-0.1858zm55.402-0.0892c-1.383-1.383-0.60404-5.8178 1.1179-6.3643 3.7176-1.1799 6.5217 2.1062 4.6504 5.4499-0.85436 1.5266-4.5675 2.1153-5.7683 0.9144zm7.5-8.4375c-1.1117-1.1117-0.66252-5.6768 0.66721-6.7804 1.5668-1.3003 5.9854 0.11011 6.7728 2.1618 1.3194 3.4383-4.8132 7.2453-7.44 4.6186zm-72.188-3.75c-1.4602-1.4602-0.50802-3.8663 1.6967-4.2877 2.8021-0.53566 3.3033-0.12218 3.3033 2.7252 0 2.1492-3.3625 3.2-5 1.5625zm80.471-10.617c-0.7501-2.3634 0.0968-3.7584 2.2816-3.7584 2.2021 0 4.1735 2.3866 3.475 4.2068-0.81435 2.1222-5.0454 1.7926-5.7566-0.44843zm-88.647-5.2259c-1.1068-1.3337-1.0353-1.7302 0.51705-2.8654 2.3908-1.7482 3.7525-1.1728 3.7525 1.5856 0 2.7228-2.46 3.4602-4.2696 1.2797zm-6.8007-12.314c-2.6088-0.67596-1.7601-5.3458 1.0437-5.7433 3.9774-0.56384 5.9814 2.3426 3.3971 4.9269-1.5259 1.5259-1.6294 1.5449-4.4408 0.81645zm-5.1639-15.984c0.46996-4.0845 5.4529-4.3556 5.4529-0.29664 0 2.583-0.29174 2.8748-2.8748 2.8748s-2.8447-0.26164-2.5781-2.5781zm-2.7677-12.938c-2.4315-1.7031-2.5359-2.2684-0.84581-4.5797 1.8576-2.5404 5.5407-0.40642 5.1382 2.9771-0.36104 3.0353-1.5911 3.4946-4.2924 1.6025zm227.05 95.572c2.4485-0.93958 1.6758-2.2434-1.3296-2.2434-1.875 0-2.8125 0.46875-2.8125 1.4062 0 1.4719 1.6297 1.8013 4.1421 0.8372zm-324.06-3.7719c3.535-0.94734 2.3569-2.2216-2.054-2.2216-3.9683 0-5.8575 0.9166-4.5611 2.213 0.74844 0.74843 3.8395 0.75246 6.6152 8e-3zm-25.78-9.3326c0.95206-0.95206-1.2964-6.014-2.6714-6.014-1.5994 0-1.6557 1.038-0.22656 4.1746 1.0859 2.3834 1.8616 2.8757 2.898 1.8394zm339.14 0.0797c0-0.25781-0.84375-1.3125-1.875-2.3438-2.0227-2.0227-2.6384-0.78796-0.70313 1.4102 1.1629 1.3208 2.5781 1.8333 2.5781 0.93359zm-327.2-7.0312c0.82268 0 3.1508 0.84375 5.1735 1.875 9.4644 4.8252 20.633-9.4089 12.214-15.566-8.0501-5.8864-22.057 3.0449-22.057 14.064 0 4.0462 1.1848 5.1144 2.2904 2.065 0.48625-1.3412 1.5572-2.4385 2.3799-2.4385zm114.44-0.51074c3.1666-3.0338 3.6136-6.9022 1.4078-12.182-3.8925-9.3162-20.202-4.6383-20.202 5.7943 0 8.8205 11.998 12.898 18.794 6.3873zm210.79-6.8374c1.4983-0.21182 3.0101 0.51222 4.5604 2.1841 3.9123 4.2192 9.2029 1.9122 10.221-4.457 0.40687-2.5445 1.1587-3.8986 2.3354-4.2063 5.656-1.4791-2.2779-7.3426-8.4296-6.2298-10.862 1.9648-16.054 9.7549-13.056 19.588l1.1432 3.75 0.49218-5.1562c0.43483-4.5552 0.75344-5.1932 2.7335-5.4731zm-72.654 3.6626c2.36-2.36 2.8049-3.5416 2.8049-7.4495 0-12.514-17.061-14.351-21.049-2.2663-3.247 9.8385 10.696 17.264 18.244 9.7158zm109.32-1.4708 2.2018-2.3438h-2.4069c-2.3672 0-4.064 2.1517-3.0239 3.8346 0.7212 1.1669 0.74051 1.158 3.229-1.4908zm-384.05-2.2306c-0.1658-3.5015-2.8019-7.9332-4.2036-7.0669-0.58222 0.35983-0.72985 1.9421-0.36343 3.8953 1.2356 6.5864 4.8475 9.0946 4.567 3.1716zm90.479-3.4927c8.0951-1.8281 11.606-4.9425 13.703-12.156 2.4389-8.3896 1.2698-12.068-1.8922-5.9535-2.5857 5.0001-15.151 7.3447-19.649 3.6663-0.51563-0.42164-4-2.3222-7.743-4.2234-13.22-6.7152-18.581-16.399-14.782-26.704 2.8458-7.7191 2.8496-7.5-0.12958-7.5-1.9783 0-4.0468 1.2685-7.6093 4.6664l-4.8925 4.6664v6.2049c0 18.92 10.71 32.081 30.469 37.442 5.9729 1.6205 4.8213 1.6306 12.526-0.1094zm-76.217-2.339c7.5393-7.9571 16.966-10.788 26.894-8.0751 4.2228 1.1538 3.205-1.1251-5.1969-11.636-9.0557-11.329-14.725-19.055-14.725-20.068 0-0.39343-1.4083-2.4463-3.1296-4.5619-1.7213-2.1156-3.8954-5.87-4.8315-8.3432-0.93606-2.4731-2.8252-6.27-4.1981-8.4375-3.5186-5.555-9.5321-22.043-12.208-33.472-10.392-44.389-9.5997-81.26 2.4302-113.04 1.3519-3.5713 3.4125-9.2355 4.579-12.587 3.8913-11.18 21.832-42.219 28.201-48.79 4.1726-4.3046 4.1048-5.5827-0.29667-5.5966-7.1691-0.0227-20.859-5.6206-20.859-8.5293 0-0.43522-1.1058-1.5159-2.4574-2.4015-2.8303-1.8545-5.0426-0.10075-5.0426 3.9973 0 1.3622-1.0909 2.7156-3.1848 3.951-4.4617 2.6325-10.935 11.919-18.053 25.899-1.3305 2.6132-3.0704 5.9858-3.8664 7.4949-0.79598 1.509-2.811 6.5715-4.4779 11.25-1.6669 4.6784-4.0922 11.459-5.3896 15.069-3.6192 10.069-6.2844 20.262-6.2811 24.023 0.0016 1.8688-0.66869 5.2438-1.4896 7.5-3.1068 8.539-4.7325 35.713-3.2361 54.094 1.2037 14.786 4.2617 35.941 5.5599 38.462 0.43777 0.85029 1.3346 3.8663 1.993 6.7022 0.65836 2.8359 2.5583 9.375 4.2221 14.531 1.6638 5.1562 3.7247 11.602 4.5797 14.324 2.4124 7.6794 16.263 35.03 19.355 38.221 1.5228 1.5714 2.7687 3.1632 2.7687 3.5373s2.083 3.8257 4.6289 7.6701c8.9379 13.497 9.145 13.63 13.711 8.8106zm307.44-0.53867c28.049-13.408 36.871-41.108 16.606-52.137-8.9156-4.8524-12.911-3.0813-7.2306 3.2057 12.09 13.382-11.694 40.629-31.819 36.451-8.8107-1.8291-9.8249 1.9452-2.5672 9.5534 6.464 6.7762 14.896 7.7632 25.011 2.9277zm73.979-6.0022c2.8272-3.3599 3.0533-4.6156 0.83109-4.6156-1.6105 0-7.779 5.3497-7.779 6.7464 0 1.9627 4.722 0.51452 6.9479-2.1308zm-401.2 1.0565c0.30268-0.48975-0.25863-1.3234-1.2474-1.8526-0.98874-0.52915-2.6105-2.5284-3.604-4.4427-2.5121-4.8406-4.0258-5.0666-4.0258-0.60096 0 5.9628 6.3874 10.925 8.8772 6.8963zm386.47-1.5512c0.92641-1.3429 3.9418-4.9715 6.7009-8.0636 2.7591-3.092 5.8498-7.3722 6.8682-9.5114 1.0184-2.1393 3.2874-6.4208 5.0421-9.5146s3.6489-6.6797 4.2092-7.9688c0.56032-1.2891 2.6774-5.7188 4.7046-9.8438 4.4202-8.9942 8.0883-18.598 10.027-26.25 3.2779-12.942 6.8599-26.44 7.7271-29.118 2.2545-6.9624 3.1593-43.731 1.3345-54.237-0.63487-3.6551-1.4475-11.075-1.8058-16.489s-1.244-11.655-1.968-13.868c-0.72404-2.2136-1.9114-7.7031-2.6385-12.199s-1.9332-9.8566-2.6801-11.913c-0.74692-2.0562-1.8635-5.8425-2.4812-8.4139-0.61775-2.5715-1.6764-5.3136-2.3525-6.0938-0.67614-0.78009-2.1181-3.8347-3.2044-6.788-2.5283-6.8738-9.1367-20.03-11.896-23.682-1.1729-1.5527-3.9058-6.3071-6.073-10.565-2.1672-4.2582-4.3513-7.9962-4.8535-8.3065s-2.3284-2.7326-4.0583-5.3828c-6.0376-9.2495-15.308-18.234-16.643-16.13-6.176 9.7371-11.699 12.936-22.42 12.986-4.5441 0.0213-8.2619 0.19913-8.2619 0.39514 0 0.196 3.5437 4.0957 7.8749 8.6659 8.0086 8.4506 13.657 16.035 17.351 23.299 1.1286 2.2194 3.4712 5.8945 5.2058 8.1669 1.7346 2.2725 3.429 5.3845 3.7653 6.9157 0.3363 1.5312 1.1227 3.2082 1.7476 3.7268 2.327 1.9313 11.865 24.751 14.746 35.28 6.9392 25.361 8.8993 59.727 4.6787 82.031-0.53665 2.8359-1.357 7.6875-1.8231 10.781-0.46605 3.0938-1.5186 7.5234-2.3391 9.8438-0.82043 2.3203-1.4978 5.1488-1.5054 6.2855-7e-3 1.1367-1.1071 4.9336-2.4436 8.4375-1.3364 3.5039-3.8105 10.168-5.4979 14.808-1.6874 4.6406-5.0641 11.997-7.5037 16.347-2.4396 4.3503-4.7718 8.7938-5.1827 9.8745s-2.1769 3.8495-3.9245 6.1529c-5.587 7.3639-12 19.477-12.019 22.704-3e-3 0.38671 2.2394 0.70312 4.9818 0.70312 6.7822 0 13.395 2.1181 18.956 6.072 5.5562 3.9503 5.5263 3.947 7.6549 0.86137zm-79.409-13.544c0-0.54193-1.582-1.637-3.5156-2.4336-1.9336-0.79652-5.6965-2.8844-8.362-4.6397-2.6655-1.7553-5.1274-3.1914-5.4708-3.1914-0.34345 0-3.2251-1.232-6.4036-2.7377-7.5598-3.5812-27.236-9.8101-36.717-11.623-4.125-0.78886-11.508-2.1957-16.406-3.1262-12.881-2.447-49.119-2.3175-61.641 0.22026-7.3465 1.489-2.0723 4.3985 6.5625 3.6202 24.359-2.1956 69.108 1.2598 78.396 6.0534 0.83928 0.43318 5.7447 1.9246 10.901 3.3143 5.1562 1.3897 10.832 3.1661 12.613 3.9476 1.7811 0.7815 4.9464 2.0008 7.0342 2.7097 2.0878 0.70881 7.1696 2.9684 11.293 5.0214 7.4481 3.7082 11.716 4.7518 11.716 2.8648zm-321.06-3.4678c-1.4181-7.6941-5.1857-11.602-5.1857-5.379 0 3.8888 2.5468 8.8946 4.5252 8.8946 1.0022 0 1.1568-0.82289 0.66047-3.5156zm116.7 1.1583c6.4356-3.6086 18.982-9.4534 21.822-10.166 3.2493-0.81552 3.3896-3.4139 0.18437-3.4139-4.1895 0-30.421 12.722-30.445 14.766-0.0221 1.9008 3.9226 1.3466 8.4384-1.1855zm309.75-1.4646c2.5358-3.0136 3.1676-5.5531 1.3816-5.5531-1.1545 0-7.3921 6.4833-7.3921 7.6832 0 1.8414 3.8026 0.49369 6.0104-2.1301zm-322.28-5.2405c4.5633-1.8906 9.7734-4.5477 11.578-5.9046 5.1848-3.8984 7.6672-5.2129 12.188-6.4534 9.2541-2.5397 13.827-5.5805 11.01-7.3214-2.3425-1.4477-7.921-0.0663-16.057 3.9764-15.319 7.6118-16.199 2.8282-5.105-27.734 1.0294-2.8359 2.666-10.008 3.6369-15.938 0.97086-5.9297 2.3961-14.578 3.1672-19.219 2.9775-17.919 1.3282-67.147-2.3254-69.405-2.6386-1.6307-3.3437 2.2507-2.1575 11.876 2.4252 19.679 1.075 56.763-2.6235 72.06-1.4377 5.946-7.7368 26.659-9.9788 32.812-5.3809 14.769-6.8739 18.373-8.8934 21.465-8.1703 12.513-6.8085 14.909 5.5603 9.7846zm231.89 2.0289c1.6546-1.9937 0.61425-6.0154-3.0708-11.871-1.7312-2.7509-3.8997-6.6892-4.8189-8.7517-0.91917-2.0625-3.5283-7.4953-5.798-12.073-2.2697-4.5776-4.1267-8.887-4.1267-9.5764 0-2.0975-3.2522-3.2963-5.1592-1.9019-2.1276 1.5557-1.3044 7.0523 1.7721 11.832 7.9538 12.359 6.0412 17.98-4.4658 13.126-7.2578-3.3531-18.872-6.9555-30.116-9.3407-2.0625-0.43754-6.1964-1.4682-9.1864-2.2903-2.99-0.82211-6.365-1.5012-7.5-1.5091-1.135-7e-3 -5.4386-0.87249-9.5636-1.9213-15.95-4.0554-63.176-4.8043-75.758-1.2012-8.2106 2.3512 1.8036 7.1066 11.619 5.5176 12.776-2.0681 51.309 0.34235 68.089 4.2593 4.2352 0.98864 8.532 1.7975 9.5483 1.7975 2.6156 0 26.876 8.2064 32.149 10.875 2.4186 1.224 7.5905 3.4938 11.493 5.0441s8.8111 3.9016 10.908 5.225c6.9504 4.3876 11.834 5.3515 13.985 2.76zm-279.38-6.8414c0-0.92808-1.9835-4.4086-4.4078-7.7344-4.6548-6.3858-9.6547-15.141-9.6547-16.906 0-0.57786-2.3063-5.9647-5.1251-11.971-2.8188-6.0061-5.7401-13.662-6.4918-17.014-0.75171-3.3516-2.0731-7.9922-2.9365-10.312-1.9846-5.3336-5.1052-22.535-5.1216-28.231-0.0068-2.3788-0.47895-6.5976-1.0491-9.375-1.7195-8.3764-0.68163-26.01 2.2285-37.862 0.75959-3.0938 1.9038-9 2.5427-13.125 2.4562-15.859 12.667-42.553 19.861-51.923 3.7877-4.9334 1.4473-9.3182-2.4814-4.6491-3.7719 4.4826-15.299 29.185-17.302 37.078-1.8416 7.2576-4.4339 15.88-5.0967 16.953-8.1522 13.191-4.9904 78.013 5.0964 104.48 1.5203 3.9896 3.4064 9.1457 4.1914 11.458 2.4846 7.3182 15.414 31.3 19.859 36.835 3.3505 4.172 5.8868 5.1616 5.8868 2.297zm-65.634-10.169c-1.4424-4.5096-2.4832-5.7138-3.8003-4.3967-1.6257 1.6257-1.3021 6.7314 0.55676 8.7855 2.8085 3.1033 4.7846 0.42945 3.2436-4.3888zm355 1.9653c0.30686-0.79968-0.24284-2.3817-1.2216-3.5156s-2.9789-4.5929-4.4449-7.6867c-1.466-3.0938-3.1167-6.4688-3.6683-7.5-2.885-5.3938-7.2196-14.696-7.2196-15.494 0-0.502-1.0627-0.91272-2.3616-0.91272-3.221 0-2.6709 1.9684 4.9777 17.812 8.2171 17.022 12.164 21.919 13.938 17.296zm90.689-1.1242c3.1539-1.5882 5.7173-5.0862 4.5688-6.2346-1.9126-1.9126-6.0862 0.88459-8.6031 5.7658-1.3251 2.5699-0.36077 2.682 4.0343 0.46875zm-339.77-12.891c5.1388-14.063 6.3871-17.702 6.9719-20.325 0.30807-1.3819 1.1524-3.1048 1.8762-3.8287 7.0921-7.0921 8.4791-92.565 1.5021-92.565-0.91742 0-0.37098 16.679 0.84465 25.781 2.6438 19.796-0.80807 52.37-7.6994 72.656-1.3137 3.8672-3.9286 11.883-5.811 17.812-1.8823 5.9297-3.6586 11.414-3.9473 12.188s0.3086 0.35156 1.3274-0.9375c1.0187-1.2891 3.2397-6.1406 4.9355-10.781zm284.79 3.9844c11.284-19.936 17.48-38.099 21.827-63.984 0.60616-3.6094 1.4808-8.5872 1.9436-11.062 1.1111-5.9403 1.0809-33.097-0.0431-38.814-0.48654-2.4746-1.5901-9.1399-2.4523-14.812-0.8622-5.6719-2.7844-14.481-4.2716-19.575-1.4872-5.0944-2.7242-9.946-2.749-10.781-0.0247-0.83529-0.76305-2.8654-1.6406-4.5113-0.87758-1.6459-4.0369-7.974-7.0208-14.062-2.9839-6.0885-5.8271-11.703-6.3183-12.476-0.4912-0.77344-1.7044-2.8828-2.6961-4.6875-3.4358-6.2529-8.7106-11.63-9.6906-9.879-0.64282 1.1487 0.17872 3.2236 3.1949 8.0695 9.4326 15.154 12.034 20.485 18.95 38.841 14.484 38.439 13.998 87.435-1.2854 129.38-2.5456 6.9857-9.9566 22.587-12.315 25.926-1.8008 2.5491-2.1958 5.1233-1.1889 7.7474 0.95522 2.4893 1.7599 1.7464 5.7561-5.314zm-397.71-6.4295c0.68407-4.049-1.0756-7.3661-3.2084-6.048-2.1017 1.2989-0.59381 9.8994 1.7356 9.8994 0.45216 0 1.1149-1.7331 1.4728-3.8514zm460.51-4.5288c2.0215-2.9834 3.757-9.0576 2.8477-9.9669-1.2166-1.2166-3.5314 1.1443-5.3039 5.4093-3.4242 8.2397-1.9245 11.023 2.4562 4.5576zm-163.06-2.1198c1.5509-1.5509 1.4101-6.5515-0.27547-9.7835-1.6554-3.1741-1.7975-6.307-0.40407-8.9107 2.3806-4.4482-2.2814-26.984-8.7486-42.29-4.5496-10.768-5.614-11.217-10.166-4.2923-7.3277 11.148-6.7768 9.2579-4.6438 15.928 4.8705 15.231 6.3413 22.967 6.9377 36.493 0.17251 3.9122 0.61681 7.6036 0.98733 8.2031 0.95992 1.5532 3.3755 1.3505 3.3755-0.28324 0-1.8562 3.3914-3.5544 5.6604-2.8342 1.9336 0.61371 2.5139 3.6801 0.8868 4.6857-1.2705 0.7852-0.25971 2.2773 2.2206 3.2781 2.7286 1.1009 2.8822 1.0938 4.1697-0.19377zm-11.661-19.031c-0.794-2.0692 0.83462-3.5084 3.5373-3.126 1.4879 0.21051 2.2175 0.93063 2.2175 2.1887 0 2.4496-4.8701 3.2427-5.7548 0.93727zm-0.13971-10.957c-1.5938-1.5938-1.4143-3.2671 0.4263-3.9734 1.9543-0.74995 3.4023 0.61148 2.978 2.8-0.40941 2.112-1.9387 2.639-3.4043 1.1734zm-5.3728-15.79c-0.36466-0.59003-0.23834-1.4975 0.2807-2.0165 1.3318-1.3318 4.4242-0.54902 4.4242 1.1199 0 1.6855-3.7729 2.4045-4.7048 0.89658zm-2.1389-11.409c-2.4336-2.4336-0.69947-5.0864 2.6334-4.0286 2.2258 0.70644 2.4829 3.779 0.38368 4.5845-1.8881 0.72453-1.7024 0.75874-3.0171-0.55595zm-195.5 54.963c3.4176-3.4176 2.8509-11.287-1.1104-15.422-5.0686-5.2905-13.829-2.573-16.352 5.0726-3.0061 9.1086 10.625 17.187 17.462 10.349zm305.74-3.7391c7.5817-5.3104 6.0294-18.559-2.4728-21.107-7.1992-2.1569-15.136 4.5034-15.136 12.701 0 7.6505 11.113 12.955 17.609 8.4054zm-393.73-5.0174c0.24891-4.2865 0.07099-4.8855-1.369-4.6082-1.9795 0.38122-3.1715 5.1495-2.0472 8.1888 1.3231 3.5767 3.1093 1.7045 3.4162-3.5807zm180.65-4.325c6.1875-0.76638 13.57-1.99 16.406-2.7191 23.125-5.9456 29.319-9.3972 20.989-11.697-2.6485-0.73129-3.86-0.624-5.5644 0.49279-5.1538 3.3769-10.482-0.79134-6.0913-4.765 3.4333-3.1071 1.3712-4.8116-3.8894-3.215-2.9594 0.89815-13.875 2.7868-27.007 4.6727-3.3516 0.48134-9.0887 0.85473-12.749 0.82975-8.7036-0.0593-12.64 4.6593-4.8567 5.8221 5.4862 0.81961 4.4386 6.7561-1.0991 6.228-3.9631-0.37795-5.8148 1.9415-3.6411 4.5607 1.3716 1.6526 13.193 1.5624 27.502-0.20987zm-12.924-6.65c-2.2043-2.2042 1.6066-5.6386 5.0456-4.5471 3.0889 0.98038 1.9688 4.595-1.53 4.9377-1.5654 0.15335-3.1474-0.0224-3.5156-0.39062zm14.671-2.6979c-0.32397-0.84427-0.15596-1.9681 0.37336-2.4974 1.5282-1.5282 4.4428-0.49824 4.4428 1.57 0 2.3847-3.964 3.148-4.8162 0.9274zm11.249-1.8777c-0.8838-2.3032 0.38669-4.2188 2.798-4.2188 3.1051 0 4.995 2.3276 3.4255 4.2188-0.6419 0.77344-2.1834 1.4062-3.4255 1.4062-1.2421 0-2.5012-0.63281-2.798-1.4062zm131.2 10.711c15.619-2.3342 37.819-11.112 50.472-19.958 3.4203-2.391 6.6102-4.3472 7.0886-4.3472 3.4168 0 29.716-29.29 32.689-36.407 2.2536-5.3935-0.90439-18.905-4.4185-18.905-0.41807 0-1.4435-1.3214-2.2787-2.9366-6.1549-11.902-43.089-40.207-52.905-40.544-3.478-0.11951-3.5106-0.0402-2.236 5.4244 0.54423 2.3331 0.17805 3.1007-2.5486 5.3426-4.0374 3.3195-3.3927 4.5246 4.7846 8.9442 3.3516 1.8114 6.9375 4.0337 7.9688 4.9384 1.0312 0.90469 3.8047 2.744 6.1632 4.0873 12.241 6.9719 16.964 14.415 10.785 16.997-9.0409 3.7775-9.3343 15.158-0.56989 22.1 5.4207 4.2933 3.3267 9.4387-5.7482 14.125-1.2058 0.62261-3.0361 1.8879-4.0673 2.8118-4.0547 3.6324-32.978 16.836-36.88 16.836-1.0472 0-3.0827 0.44815-4.5234 0.99591-1.4407 0.54774-5.9659 1.5801-10.056 2.2942-9.9306 1.7336-10.251 2.1196-8.6658 10.439 1.8794 9.8635 1.6591 9.7491 14.946 7.7634zm-9.5656-5.9049c-2.1636-2.607 0.71214-5.623 4.4336-4.6498 4.0621 1.0622 3.0349 5.9372-1.251 5.9372-1.1628 0-2.595-0.57934-3.1826-1.2874zm13.73-1.6002c-0.90234-0.52557-1.6406-2.0136-1.6406-3.3066 0-3.4764 7.7897-3.0409 8.2852 0.46322 0.48446 3.4263-3.0482 4.9381-6.6445 2.8434zm15.537-7.0508c-0.56956-1.4842 1.0519-3.1445 3.0981-3.1723 1.5352-0.0208 3.4262 2.5492 2.7183 3.6946-0.94435 1.528-5.1754 1.148-5.8164-0.5223zm18.616-9.046c0.33859-2.384 4.2964-3.5167 5.4974-1.5733 1.2428 2.0108-0.12805 3.6827-3.0196 3.6827-2.344 0-2.7306-0.32914-2.4778-2.1094zm12.643-6.9531c-2.3436-2.3436 1.0208-5.7486 4.3992-4.4522 2.8136 1.0797 1.9334 5.0772-1.1179 5.0772-1.4609 0-2.9375-0.28125-3.2812-0.625zm11.926-11.968c-1.0064-2.6227 0.37643-4.4286 3.1472-4.1099 2.0514 0.23597 2.5835 0.77981 2.5835 2.6409 0 2.82-4.7454 4.0364-5.7306 1.469zm7.1369-13.39c-0.77344-0.30888-3.0512-1.595-5.0616-2.858-2.0105-1.263-5.3435-2.7851-7.4068-3.3825-6.7847-1.9643-6.1928-8.0889 0.78173-8.0889 1.1924 0 4.1025-1.4766 6.4668-3.2812 8.1914-6.2527 23.672 1.1354 21.944 10.473-0.54198 2.9281-13.459 8.4415-16.724 7.1379zm5.6866-7.7998c2.1986-1.1766 2.2813-2.1777 0.34015-4.1188-1.9966-1.9966-5.3545-1.854-8.0323 0.34099-3.8358 3.1443 2.7929 6.3998 7.6922 3.7778zm-9.05-19.999c-0.94308-2.4577 0.0206-4.8116 1.97-4.8116 1.4422 0 1.8622 0.63143 1.8622 2.7997 0 3.0672-2.8525 4.5648-3.8321 2.0119zm-10.972-10.553c-1.8027-1.8027-0.62469-4.222 1.9136-3.9299 1.8542 0.21335 2.5781 0.8231 2.5781 2.1716 0 1.8836-3.138 3.112-4.4917 1.7583zm-9.8748-7.9407c-2.9898-1.1525-2.324-4.0414 1.0204-4.4273 1.7213-0.19861 2.7716 0.21413 3.1671 1.2446 0.89479 2.3318-1.5582 4.1962-4.1875 3.1827zm-12.352-7.8801c0-0.96559 0.61444-1.4254 1.6406-1.2278 1.9761 0.38056 1.8515 2.0444-0.18485 2.4684-0.84936 0.17686-1.4558-0.33993-1.4558-1.2406zm-79.701 103.36c-0.0199-9.7644-4.7217-15.512-12.815-15.664-2.1604-0.0408-9.9894-3.054-19.735-7.5957-7.0582-3.2892-21.243-13.346-28.538-20.232-5.6611-5.344-6.321-5.6622-8.0852-3.898-1.6993 1.6993-1.3498 4.3023 0.66339 4.9413 5.133 1.6292 3.06 6.3442-2.6167 5.9517-4.1102-0.28419-4.3429-0.16956-4.6246 2.2789-0.16316 1.418 0.0763 2.5781 0.53217 2.5781 0.45585 0 3.3315 2.3406 6.3904 5.2013 6.6354 6.2056 13.712 11.685 18.218 14.105 1.8047 0.96949 4.125 2.4788 5.1562 3.3539s5.4442 3.1175 9.8065 4.983c4.3623 1.8655 8.3701 3.725 8.9062 4.1322 2.2643 1.7202 19.478 6.396 24.178 6.5677l2.5781 0.0942-0.0138-6.7969zm-10.594-3.8701c-0.55434-1.4446 1.012-3.3955 2.7261-3.3955 1.3199 0 2.1501 1.8571 1.5716 3.5156-0.55121 1.5802-3.6788 1.4928-4.2977-0.12013zm-14.47-3.143c-0.64453-0.22483-1.1719-1.4576-1.1719-2.7396 0-3.0509 4.0638-2.8177 4.5027 0.25838 0.29201 2.0466-1.2608 3.2033-3.3308 2.4812zm-15.141-7.5783c-0.7646-1.4287-0.56752-2.1778 0.92931-3.5324 2.3753-2.1496 5.0712-0.80846 5.0712 2.5229 0 2.9853-4.5348 3.7482-6.0005 1.0095zm-11.656-6.4242c-1.7691-1.7691-0.55899-4.1794 1.9531-3.8904 3.5166 0.40462 4.3583 4.5154 0.92459 4.5154-1.239 0-2.534-0.28125-2.8777-0.625zm-10.785-6.761c-2.1983-1.3934-0.92793-5.2347 1.8373-5.5553 2.8744-0.33333 4.1312 1.8256 2.6615 4.5718-1.0377 1.9389-2.4905 2.2566-4.4988 0.98359zm-219.53 27.543c1.8276-4.8069-0.94536-10.853-3.4233-7.4644-1.498 2.0486-1.596 4.125-0.34973 7.403 1.1582 3.0462 2.6291 3.0702 3.7731 0.0614zm118.13-2.4319c0-0.95922-1.0547-2.4351-2.3438-3.2797-3.8356-2.5132-3.2275-6.396 1.1719-7.4828 4.9172-1.2147 5.6575-5.4557 1.1111-6.365-2.9534-0.59069-4.1653-1.2667-17.848-9.9555-11.61-7.3727-13.687-11.589-7.9599-16.159 6.6108-5.2747 4.5205-17.406-3.365-19.529-6.7692-1.8228-3.516-7.2131 7.8997-13.09 3.2258-1.6605 7.9745-4.5681 10.553-6.4613 8.9294-6.557 25.512-12.942 42.549-16.383 9.7517-1.9697 12.234-5.9683 4.4868-7.2276-4.3963-0.7146-6.6602-2.7866-5.8463-5.351 0.79008-2.4893 2.5828-3.0905 6.1582-2.065 2.7936 0.8012 2.9108 0.72595 2.6318-1.6907-0.44774-3.8791-18.891-1.7192-32.126 3.7623-6.7338 2.7889-22.281 9.9642-23.947 11.052-0.77344 0.50495-3.0938 1.8238-5.1562 2.9307-9.4223 5.057-36.328 32.266-41.208 41.673-1.4557 2.8058-0.5976 7.1165 2.0655 10.376 0.90359 1.1061 4.2002 5.1471 7.3259 8.9801 6.6772 8.1883 18.381 20.133 22.588 23.052 4.9284 3.4198 13.998 8.3403 17.51 9.4992 1.8205 0.6008 4.8215 2.2937 6.6691 3.7619 3.6737 2.9195 7.0814 2.8964 7.0814-0.0479zm-15.885-12.001c-0.70474-1.3168-0.59506-2.0718 0.42382-2.9174 1.9918-1.653 4.211-0.43001 4.211 2.3208 0 2.9064-3.1796 3.3157-4.6348 0.59662zm-12.156-9.7078c-0.55905-1.4867-0.40618-2.3338 0.51788-2.8697 2.6962-1.5636 6.9582 1.6692 5.4397 4.1261-1.0834 1.753-5.1483 0.89574-5.9576-1.2565zm-13.126-9.51c-1.0636-1.2816 0.77725-4.3181 2.6178-4.3181 1.8224 0 3.9184 2.5128 3.3442 4.0091-0.74517 1.9418-4.4476 2.1337-5.962 0.30897zm-6.1762-12.36c-2.5781-1.7389-5.6367-3.8246-6.7969-4.6347-2.8516-1.9914-2.6566-4.7607 0.46875-6.6545 1.418-0.85924 3.696-2.3269 5.0622-3.2614 4.6968-3.2127 7.0164-3.2071 10.248 0.0246 1.6146 1.6146 4.1826 3.5804 5.7067 4.3686 3.5233 1.822 3.2935 4.9968-0.49262 6.806-1.4733 0.70403-3.3718 2.4983-4.2188 3.9872-1.9797 3.4802-4.073 3.3468-9.9775-0.63573zm6.0938-6.9024c0-0.48519-0.44208-1.1554-0.9824-1.4893-1.376-0.8504-3.948 0.28254-3.2404 1.4274 0.73741 1.1931 4.2228 1.2443 4.2228 0.062zm-4.5154-17.633c0.33824-2.9396 3.4876-4.0086 5.3167-1.8047 1.752 2.1111 0.28056 4.3828-2.8389 4.3828-2.4736 0-2.7423-0.27957-2.4778-2.5781zm12.158-8.551c-1.9282-1.2421-0.90498-4.4041 1.2981-4.0115 2.0208 0.36012 3.3837 1.9573 2.92 3.4219-0.40205 1.2698-2.6699 1.5868-4.2181 0.58961zm11.108-8.3569c-2.1279-0.73033-2.7829-2.255-1.7766-4.1354 1.5361-2.8702 6.4641-1.5402 6.4641 1.7446 0 1.5392-2.8836 3.0099-4.6875 2.3907zm12.709-8.5544c-1.0148-1.6421 0.63755-3.8346 2.8899-3.8346 2.6176 0 4.0554 2.6024 2.1163 3.8303-1.7078 1.0814-4.3392 1.0837-5.0062 5e-3zm15.025-6.9434c-2.6345-1.9264-1.5416-4.8599 1.8106-4.8599 2.2376 0 2.8632 0.44928 3.1161 2.2377 0.47547 3.3628-2.0648 4.7148-4.9267 2.6222zm12.919-5.7947c-0.32397-0.84427-0.15596-1.9681 0.37336-2.4974 1.5282-1.5282 4.4428-0.49824 4.4428 1.57 0 2.3847-3.964 3.148-4.8162 0.9274zm342.04 103.84c1.2088-2.7328 1.537-4.517 0.9406-5.1134-1.3398-1.3398-4.6016 2.5336-5.1464 6.1114-0.90841 5.966 1.3638 5.4268 4.2058-0.99795zm-482.26-11.686c1.3238-1.3238 1.5059-6.0289 0.26308-6.797-1.3188-0.8151-3.8256 2.1673-3.8256 4.5515 0 3.3213 1.5253 4.2828 3.5625 2.2455zm191.86-3.0144c3.3807-1.4125 5.2016-3.8838 5.2016-7.0592 0-1.0708 0.7919-3.7352 1.7598-5.921s2.4877-5.9999 3.3774-8.4759c0.88966-2.4759 2.9501-6.4838 4.5788-8.9062 1.6287-2.4225 4.0765-6.303 5.4396-8.6233 2.3758-4.0442 13.077-15.343 16.172-17.075 1.9208-1.0749 1.922-5.0568 2e-3 -5.7937-3.0183-1.1582-5.0025-0.51619-6.2091 2.0091-2.475 5.1802-7.2654 3.6408-7.2936-2.3438-0.0251-5.3405-4.4753-2.6304-12.701 7.7344-2.046 2.5781-3.9874 4.8984-4.3144 5.1562-0.70093 0.55269-3.143 4.8632-9.2959 16.408-4.9809 9.3461-13.496 31.844-12.601 33.293 0.86297 1.3963 12.27 1.107 15.884-0.4029zm-5.6887-7.68c-0.9475-3.7752 2.7904-5.5215 5.6652-2.6468 2.0078 2.0078 0.33696 5.0911-2.7588 5.0911-1.6891 0-2.4545-0.64373-2.9064-2.4444zm5.2653-12.284c-5.1835-2.0371-2.1047-7.8008 3.4256-6.4128 1.9476 0.48881 2.2674 1.0574 2.022 3.5953-0.29788 3.082-2.2308 4.0817-5.4476 2.8175zm8.2472-14.972c-2.3334-0.61421-3.1075-3.9662-1.327-5.7467 1.904-1.904 6.4933-0.51221 7.0008 2.1231 0.30469 1.5822-2.1449 4.4449-3.5533 4.1526-0.28817-0.0598-1.2424-0.29787-2.1205-0.52901zm5.8802-14.241c-1.188-2.2197 1.1702-5.2549 3.4139-4.394 0.74912 0.28747 1.7774 0.52267 2.2851 0.52267 0.5077 0 0.7896 1.1602 0.62644 2.5781-0.38278 3.3267-4.7584 4.2213-6.3255 1.2932zm128.07 45.259c0.3155-0.82218 0.0717-4.3032-0.54163-7.7355-4.0101-22.439-1.741-71.613 4.1727-90.427 1.2644-4.0227 2.2989-8.2967 2.2989-9.4978 0-3.3475 4.8066-15.515 12.288-31.107 5.132-10.695 4.4996-11.134-7.4144-5.1437-3.9998 2.0111-11.266 5.1987-16.146 7.0836-9.2902 3.5879-13.102 6.2386-13.102 9.1108 0 2.4363 2.4826 2.1674 10.163-1.1009 12.68-5.396 16.7-2.9194 12.882 7.9374-7.2381 20.585-11.451 42.502-13.613 70.813-1.2577 16.471 1.2302 45.882 4.3016 50.852 0.79856 1.2921 4.127 0.73817 4.7112-0.784zm151.07-1.3892c1.5848-2.5377 2.6328-11.178 1.3558-11.178-1.8842 0-3.1894 2.7741-3.7188 7.904-0.56075 5.4332 0.28396 6.6036 2.3631 3.2744zm-138.56-3.7479c0.29749-1.2508 0.20029-4.1727-0.21598-6.493-3.4444-19.199-1.1282-74.111 3.4377-81.499 1.3366-2.1626 5.1186-17.098 5.7136-22.563 0.36492-3.3516 1.082-6.6211 1.5936-7.2656 0.57997-0.73069 0.59063-1.1719 0.0283-1.1719-3.1874 0-12.369 31.333-15.384 52.5-3.4888 24.491 0.79183 83.459 4.8269 66.493zm-76.258-4.2418c1.9696-2.3712 5.0794-6.0627 6.9108-8.2031 7.7362-9.042 10.568-13.591 19.414-31.184 2.7233-5.4162 8.8386-25.74 8.2257-27.337-0.91578-2.3865-6.545-1.0362-6.9234 1.6608-0.58172 4.1455-3.6704 4.9134-6.6968 1.665-2.9875-3.2067-4.6101-1.3788-8.9983 10.136-7.061 18.529-18.474 35.938-28.273 43.125-5.658 4.1503-5.7776 4.4694-2.4834 6.6278 1.9377 1.2696 2.7559 1.3691 3.9844 0.48439 2.9579-2.1302 4.0441-2.2863 5.5349-0.79547 1.197 1.197 1.2916 1.9568 0.46855 3.7632-2.666 5.8513 3.988 5.8942 8.8365 0.057zm-2.9546-10.084c-2.4862-1.8179-1.2122-4.3543 2.1872-4.3543 3.3601 0 4.7674 2.6573 2.3453 4.4284-2.0472 1.497-2.3916 1.4913-4.5325-0.0741zm7.9288-11.401c-1.0298-1.2408-0.97698-1.7396 0.32134-3.0379 1.8255-1.8255 3.8161-0.51273 3.2953 2.1734-0.43835 2.2612-2.1233 2.664-3.6167 0.86457zm6.2631-13.265c-1.5497-1.5497-0.55759-4.0625 1.604-4.0625 2.4971 0 4.816 2.2109 3.8902 3.7089-0.67075 1.0853-4.515 1.3327-5.4941 0.35356zm7.0309-13.534c-2.6106-1.0004-2.2407-3.063 0.62489-3.4846 1.231-0.18109 2.2738 0.30871 2.6292 1.2349 0.83569 2.1778-0.68972 3.2323-3.2541 2.2497zm-289.96 47.563c1.5545-1.6547 1.9285-2.8529 1.4658-4.6964-1.281-5.104-4.1625-3.5713-4.8562 2.5831-0.54943 4.8745 0.2993 5.4035 3.3904 2.1132zm489.51-16.121c2.0259-5.3285 0.49748-13.491-2.0493-10.944-1.9468 1.9468-2.2916 13.349-0.40369 13.349 0.84627 0 1.9501-1.0822 2.453-2.4048zm-490.39-0.81523c1.3005-1.567 0.96308-7.6022-0.41792-7.4746-1.3723 0.12689-4.1664 5.9902-3.5812 7.5151 0.64774 1.688 2.5808 1.6684 3.9991-0.0406zm-0.442-17.358c1.7543-3.3925 1.9114-7.852 0.25845-7.3392-2.182 0.67692-4.7813 7.1739-3.4918 8.7277 1.5207 1.8323 1.5813 1.8063 3.2333-1.3884zm266.44-2.4754c0.35652-0.92905-0.36157-2.3573-1.9044-3.7879-3.9131-3.6285-2.7369-5.6171 3.6289-6.1352 5.481-0.44608 5.8705-4.3117 0.74304-7.3742-1.9621-1.1719-4.8331-3.2536-6.3799-4.6261-1.5469-1.3725-5.7656-4.3239-9.375-6.5588-3.6094-2.2349-8.6719-5.3906-11.25-7.0128-10.029-6.3102-29.186-13.28-34.449-12.532-3.0008 0.42612-2.6174 2.8493 0.6989 4.4166 4.9252 2.3277 5.64 5.2334 1.6597 6.7466-7.4148 2.8191-4.3174 8.7825 5.3558 10.312 9.1664 1.449 26.424 10.58 36.018 19.058 8.8621 7.8305 10.397 8.9265 12.542 8.9562 1.1764 0.0163 2.3963-0.64151 2.7111-1.4618zm-12.809-14.903c-1.7585-2.1189-0.43153-4.2307 2.6584-4.2307 3.083 0 5.3116 2.0847 4.4973 4.2068-0.70446 1.8358-5.6382 1.8522-7.1556 0.0239zm-11.26-8.0101c0-2.3304 2.3553-3.3921 4.175-1.8819 1.8802 1.5604 0.74463 3.7863-1.9315 3.7863-1.63 0-2.2434-0.52074-2.2434-1.9044zm-12.786-6.0643c-0.95397-2.486 0.42138-4.2188 3.3486-4.2188 2.8742 0 4.8853 2.197 4.0764 4.4531-0.60595 1.6899-6.761 1.4956-7.4249-0.23437zm-11.552-3.705c-1.4392-1.7341-0.95545-4.2486 1.0617-5.5188 2.109-1.3281 6.4009 0.63147 6.4009 2.9224 0 3.6455-5.115 5.4251-7.4626 2.5964zm-28.171 30.903c0.72879-0.87814 0.93303-2.5982 0.55056-4.6369-0.69443-3.7016 1.0032-5.2172 5.844-5.2172 3.8846 0 5.399-2.0558 3.5797-4.8591-0.77534-1.1946-2.0897-5.1252-2.9208-8.7346-0.83112-3.6094-1.9775-8.0391-2.5475-9.8438-0.57001-1.8047-1.2878-8.9605-1.595-15.902l-0.55865-12.621-3.2812-0.78843c-8.8694-2.1312-10.824-2.3651-11.953-1.4301-3.2958 2.7295 0.22974 41.14 4.7687 51.955 1.2707 3.0275 2.7904 7.2976 3.3772 9.489 1.1031 4.1196 2.7283 5.0077 4.7361 2.5884zm-4.1432-16.015c-1.9169-1.9169-0.67993-6.0268 1.814-6.0268 2.7552 0 5.1503 2.1692 5.1503 4.6643 0 3.2858-4.2162 4.1106-6.9643 1.3625zm-2.2232-10.902c-1.8342-1.8342-1.2877-4.4661 1.159-5.5808 3.0833-1.4048 5.216-0.4134 5.216 2.4247 0 3.4021-4.0995 5.4317-6.375 3.1562zm-1.4375-13.562c-2.4171-2.4171 1.9499-6.6893 5.4606-5.3422 1.6957 0.65072 1.8528 3.2788 0.28939 4.8422-1.2127 1.2127-4.7314 1.5186-5.75 0.5zm-1.0451-13.359c-0.99392-1.6082 1.2555-5.7037 3.1328-5.7037 4.4078 0 6.2962 2.8037 3.6624 5.4375-1.3222 1.3222-6.0285 1.5066-6.7951 0.26617zm308.86 47.187c0-5.0979-0.3171-7.0037-1.1208-6.7358-2.7822 0.92739-2.9297 13.845-0.15806 13.845 0.96767 0 1.2788-1.7298 1.2788-7.1094zm-487.92-8.3293c1.556-3.7241 1.7925-7.9989 0.44252-7.9989-1.4617 0-3.8093 4.1931-4.4059 7.8696-0.74977 4.6203 2.0488 4.7116 3.9634 0.12927zm484.76-13.287c0.71552-2.8509-0.50915-7.0341-2.2262-7.6042-1.298-0.43098-1.5317 2.4211-0.58593 7.15 0.71591 3.5796 1.9766 3.7832 2.8121 0.45429zm-208.89-3.5261c4.9161-2.5422 22.111-5.2186 33.627-5.2343 8.1395-0.0111 10.8-0.33435 11.913-1.4476 2.0539-2.0539 0.89619-4.0381-2.5511-4.3726-2.2387-0.21717-3.0396-0.79748-3.2623-2.364-0.29481-2.0733 0.39001-2.4539 5.9202-3.2907 1.4622-0.22125 1.875-1.0033 1.875-3.5521v-3.2684l-5.1562 0.22159c-8.1022 0.34818-9.5166 0.31918-14.932-0.3062-9.4472-1.0909-27.543 2.7738-45.331 9.6814-11.852 4.6025-12.432 5.3263-6.5825 8.2157 2.0879 1.0312 5.1987 3.2972 6.913 5.0353 3.551 3.6005 11.339 3.9028 17.567 0.68195zm-16.73-3.882c-1.6273-1.9608-0.0909-3.3704 3.8809-3.5609 2.3669-0.11349 3.2021 0.27414 3.476 1.6133 0.66044 3.2285-5.0411 4.7379-7.3569 1.9476zm12.89-3.8221c-1.3637-1.3637-0.60118-3.2418 1.6662-4.1038 3.1503-1.1978 5.3291-0.22397 4.9796 2.2256-0.28762 2.0159-5.1374 3.3865-6.6458 1.8782zm14.807-4.0944c-0.88623-1.434 1.2511-3.7625 3.4535-3.7625 1.3568 0 1.7485 0.54153 1.5258 2.1094-0.32381 2.28-3.8652 3.4558-4.9793 1.6532zm15.79-1.4441c-0.68717-1.7907 1.1921-3.3328 3.1473-2.5825 1.7698 0.67915 1.1117 3.4484-0.91211 3.8382-0.89798 0.17294-1.9038-0.39213-2.2352-1.2557zm-300.02 10.103c1.7511-3.4761 2.7159-7.7344 1.7524-7.7344-1.0532 0-4.878 6.8996-4.878 8.7995 0 2.3578 1.6917 1.7813 3.1256-1.0652zm90.735-4.8116c4.9441-4.9442 4.8339-9.1396-0.39088-14.876-4.8759-5.3533-17.955 0.53554-17.743 7.9887 0.27324 9.6102 11.244 13.777 18.134 6.8872zm386.14-10.87c0-4.0769-0.81462-6.1151-2.444-6.1151-1.5786 0-1.6113 0.76967-0.26008 6.1357 1.1862 4.7109 2.7041 4.6994 2.7041-0.0206zm-82.688 1.0052c9.7222-5.0585 9.5877-15.913-0.2548-20.57-11.052-5.2285-19.191 13.187-8.7747 19.855 3.6755 2.3532 5.5886 2.5045 9.0295 0.71421zm-269.94-6.8685c-0.45528-2.4588-1.5874-5.5253-2.5159-6.8143-0.92844-1.2891-3.8395-6.7953-6.4689-12.236s-5.4522-10.45-6.2726-11.13c-2.8641-2.377-1.6771 3.0822 2.2063 10.147 2.0339 3.7002 3.9879 7.661 4.3422 8.8017 3.3071 10.648 10.262 19.617 8.709 11.232zm-119.12 2.3732c1.2351-1.2351 1.5429-4.5085 0.42188-4.4856-2.8649 0.0585-4.9832 5.6106-2.1406 5.6106 0.32656 0 1.1-0.50625 1.7188-1.125zm134.26-3.3281c7e-3 -1.6551-7.5112-21.079-9.9445-25.692-3.9502-7.4877 0.57102-9.3702 10.034-4.178 2.2671 1.2439 8.7626 3.8357 14.435 5.7595 5.6719 1.9238 10.991 3.8467 11.819 4.2732 2.3948 1.2322 29.708 7.9668 36.931 9.106 16.991 2.6799 20.717 3.0065 35.625 3.123 21.845 0.17077 38.906-1.8515 38.906-4.6117 0-3.6217-2.0408-4.036-15.009-3.0467-26.733 2.0392-44.299 0.945-70.303-4.3794-11.668-2.389-13.421-2.8133-17.812-4.3102-2.3203-0.79101-6.3281-1.915-8.9062-2.4976-2.5781-0.58269-6.375-1.8459-8.4375-2.8071-2.0625-0.96124-5.2266-2.034-7.0312-2.384s-4.7796-1.603-6.611-2.7846c-9.9106-6.3942-27.321-14.524-29.084-13.58-3.2402 1.7341-3.0056 2.347 8.2978 21.671 2.6107 4.4631 5.8003 11.002 7.088 14.531 4.4945 12.317 5.1389 13.448 7.666 13.448 1.5924 0 2.3335-0.51994 2.3384-1.6406zm152.81-10.078c2.711-2.8857 5.8903-3.0116 7.6878-0.30452 4.1668 6.2755 5.5004-0.49023 2.5475-12.924-8.1167-34.176-24.852-60.082-53.077-82.162-11.817-9.2448-39.307 7.508-54.646 33.303-1.6028 2.6953-4.7924 7.9951-7.0879 11.777-2.2955 3.7822-4.1737 7.1978-4.1737 7.5903 0 0.39254-0.67176 2.0603-1.4928 3.7061-2.4924 4.9961-0.11608 7.8595 2.8128 3.3894 2.498-3.8124 8.9925-2.5068 8.9925 1.8077 0 5.0394 5.8151 2.6272 7.1255-2.9557 4.1971-17.881 25.13-35.054 27.058-22.198 1.8348 12.236 14.864 12.311 19.279 0.11229 6.5196-18.015 39.279 28.392 39.344 55.735 0.0139 5.8012 2.0529 6.9323 5.631 3.1236zm-1.4614-9.3201c-2.6997-2.0047-0.7147-4.7424 3.4386-4.7424 2.6375 0 3.233 0.38122 3.4955 2.2377 0.51566 3.647-3.4613 5.0835-6.9341 2.5047zm-2.5566-13.292c-2.1166-2.1166-0.59718-4.2141 2.8462-3.9292 2.7936 0.23121 3.5156 0.67603 3.5156 2.166 0 1.9165-4.8612 3.2638-6.3618 1.7632zm-6.2452-15.766c-2.1832-2.6306-0.47248-4.4161 3.9266-4.098 3.5572 0.25718 3.993 0.54449 3.993 2.6324 0 2.8825-5.8457 3.9643-7.9195 1.4656zm-90.813-4.9812c0.48172-2.5401 5.4514-2.8106 5.4514-0.29664 0 1.5378-0.59413 1.9373-2.8812 1.9373-2.2376 0-2.8117-0.36652-2.5701-1.6406zm85.783-6.4648c-1.327-1.327-0.57612-3.1445 1.2992-3.1445 1.3106 0 1.845 0.50911 1.6406 1.5629-0.33463 1.7254-1.935 2.5864-2.9398 1.5816zm-79.037-3.5653c-0.83836-2.1847 1.472-4.4026 4.2498-4.0797 1.8855 0.21916 2.424 0.80249 2.424 2.6255 0 2.8631-5.6599 4.0964-6.6738 1.4542zm72.064-5.8253c-0.64453-0.25993-1.1719-1.0554-1.1719-1.7677 0-1.6409 3.4695-3.5443 5.2295-2.869 1.4557 0.5586 1.8668 4.3204 0.47217 4.3204-0.47346 0-1.4227 0.17752-2.1094 0.39447-0.68671 0.21697-1.7759 0.18181-2.4204-0.0781zm-65.274-2.6772c-2.6996-2.6996-1.1647-5.4322 2.7974-4.9799 2.3182 0.26464 2.7108 0.71675 2.7108 3.122 0 3.3242-3.0224 4.3436-5.5081 1.8579zm30.089-1.6236c-5.9018-4.4362-9.3494-12.851-6.538-15.957 0.90001-0.9945 2.2711-3.5149 3.0469-5.6009 2.6474-7.1188 7.4316-7.2472 11.222-0.3011 1.2715 2.3298 2.8535 4.444 3.5156 4.698 2.2105 0.84824 1.2406 5.287-2.5875 11.842-3.8716 6.629-5.5477 7.6588-8.6593 5.3198zm4.3941-11.53c1.181-1.181 1.2389-1.7941 0.3102-3.2812-2.2945-3.6741-7.3105-0.75111-5.2662 3.0688 1.0976 2.0508 3.0346 2.1339 4.956 0.21246zm18.906 5.512c-0.63865-1.6643 1.5229-4.0756 3.6262-4.0452 1.9795 0.0286 3.5136 1.6554 3.1866 3.3792-0.46708 2.4628-5.9188 2.9958-6.8128 0.66599zm-45.247-4.6558c-0.89707-2.3377 1.0176-4.5601 3.9286-4.5601 3.2806 0 5.0962 2.5006 3.3465 4.6089-1.6374 1.9729-6.5118 1.9402-7.2751-0.0489zm257.52 71.986c0-2.496-1.9181-7.6399-2.8489-7.6399-1.6906 0-1.8099 1.9089-0.34771 5.5632 1.598 3.9938 3.1966 5.0324 3.1966 2.0767zm-458.62-2.2024c1.5195-1.5195 1.4241-3.5625-0.16646-3.5625-1.7303 0-3.7089 2.4853-2.9527 3.7089 0.79184 1.2812 1.7358 1.2369 3.1191-0.14644zm92.062-2.6551c0-1.7088-2.7037-7.5046-4.6626-9.9949-8.19-10.412 9.0014-36.021 24.086-35.879 3.4063 0.0321 12.078 1.8486 15.499 3.2467 2.4862 1.0161 2.0552-1.5088-0.90625-5.3082-3.9591-5.0794-6.605-6.6743-10.924-6.5848-2.1301 0.0442-5.905-0.36904-8.3886-0.91817-15.812-3.4962-36.579 22.104-33.077 40.774 1.459 7.7772 18.374 21.277 18.374 14.664zm168.05-7.0328c8.0096-2.0371 0.33601-5.7685-8.8708-4.3136-29.661 4.6872-77.761-1.9632-104.33-14.425-2.5781-1.2092-5.9531-2.4875-7.5-2.8408-1.5469-0.35328-5.3967-2.0601-8.5551-3.793-5.8486-3.2088-11.58-4.4582-12.221-2.6642-0.19537 0.54671 3.1337 2.6161 7.398 4.5987 4.2643 1.9826 12.545 5.8565 18.402 8.6087 7.171 3.3697 14.52 5.9406 22.5 7.8717 6.518 1.5772 13.327 3.2467 15.132 3.71 16.444 4.2213 20.39 4.5671 48.281 4.231 14.953-0.18016 28.348-0.62263 29.766-0.98327zm108.49-5.1034c18.155-12.927-10.342-60.887-30.474-51.287-1.8868 0.89977-5.5757 1.5784-8.5796 1.5784-9.5884 0-16.417 11.14-12.329 20.112 1.4766 3.2408 3.0295 3.0017 4.1088-0.63277 3.349-11.278 22.67-11.44 34.34-0.2883 8.9426 8.5454 10.972 25.464 3.6015 30.019-0.523 0.32322-0.9509 1.2512-0.9509 2.062 0 2.0982 6.5358 1.1042 10.283-1.5638zm-363.11 0.40713c0.30533-0.79568 0.30228-1.6995-0.0068-2.0086-0.66773-0.66771-3.4197 1.4508-3.4197 2.6326 0 1.4148 2.8428 0.89709 3.4265-0.62397zm442.73-8.1082c-0.65497-1.2238-1.3167-1.6749-1.5278-1.0414-0.20486 0.61458 0.14745 2.0889 0.78291 3.2763 0.65497 1.2238 1.3167 1.6749 1.5278 1.0414 0.20486-0.61458-0.14746-2.0889-0.78291-3.2763zm-138.45-0.20664c2.7223-1.2439 8.8361-3.9707 13.586-6.0597 4.7501-2.089 10.235-4.8065 12.188-6.039 1.953-1.2325 4.5001-2.5418 5.6603-2.9097 2.903-0.92055 2.7206-3.355-0.2514-3.355-1.2984 0-6.4959 2.0751-11.55 4.6114-5.054 2.5362-11.691 5.6418-14.749 6.9012-11.874 4.8909-15.403 6.6967-15.403 7.8818 0 1.9569 5.0667 1.4603 10.519-1.031zm-297-6.7789c0.74802-1.9493 0.28672-2.4106-1.6626-1.6626-1.8733 0.71884-2.0551 3.203-0.23448 3.203 0.71827 0 1.572-0.6932 1.8971-1.5404zm428.03-7.1314c-0.0268-2.7175-3.1458-6.7993-4.538-5.9389-1.4474 0.89455-1.3559 1.4678 0.79859 5.0014 2.1607 3.5439 3.7692 3.9471 3.7394 0.9375zm-415.72-12.559c2.6087-2.8148 2.9069-4.0819 0.96078-4.0819-1.3551 0-5.2243 4.2596-5.2243 5.7514 0 1.5652 1.9867 0.78717 4.2635-1.6696zm133.86-1.6106c10.551-4.4086 10.527-18.353-0.0379-22.088-5.1469-1.8194-8.9238-0.22935-12.025 5.0623-6.2762 10.709 1.3657 21.495 12.063 17.026zm272.5-1.3583c0-1.9425-5.2806-7.3948-6.2363-6.4391-0.70181 0.70181 0.89841 4.6674 2.7166 6.7321 1.654 1.8782 3.5197 1.7229 3.5197-0.29293zm-365.39-0.79629c-0.64454-0.26007-1.6992-0.26007-2.3438 0-0.64454 0.26007-0.11719 0.47287 1.1719 0.47287s1.8164-0.2128 1.1719-0.47287zm234.98-6.443c3.3997-3.872 3.6307-6.5974 0.9968-11.76-4.7846-9.3786-16.604-9.6229-19.646-0.40607-3.8758 11.744 10.682 21.241 18.649 12.166zm-263.11-6.383c2.0292-1.5969 2.1317-3.4281 0.19176-3.4281-1.9146 0-6.3121 4.4444-5.576 5.6354 0.59684 0.9657 2.1734 0.31936 5.3842-2.2073zm27.891 1.2594c1.0595-1.0595 1.875-3.125 1.875-4.7491 0-4.4316 1.5274-6.5009 4.7986-6.5009 7.1733 0-0.51065-4.83-8.6518-5.4383-9.3596-0.69944-20.451 10.854-11.772 12.263 1.7389 0.28218 4.4096 1.7919 6.0216 3.4039 3.3769 3.3769 5.1404 3.61 7.7286 1.0218zm26.07 0.23438c2.5972-2.5134 16.876-13.359 17.588-13.359 0.73189 0 18.01-10.101 20.091-11.746 0.77344-0.61118 6.4688-3.3146 12.656-6.0076 6.1875-2.693 12.938-5.6478 15-6.5661 5.4042-2.4063 19.281-6.2489 29.062-8.0476 4.6406-0.85338 10.758-2.041 13.594-2.6392 6.7451-1.4228 45.49-1.3392 52.969 0.11418 3.0938 0.60122 8.838 1.5071 12.765 2.013 6.641 0.85557 10.952 2.0556 34.579 9.6264 7.7839 2.4942 12.265 4.7778 30.938 15.765 7.9506 4.6785 14.653 8.9851 18.213 11.702 6.3746 4.8658 7.0856 4.5334 6.509-3.0433-0.67863-8.9181 1.7522-15.522 7.2864-19.795 5.3901-4.1618 5.5511-5.4111 0.86045-6.6741-2.2978-0.61872-4.4365-1.9805-5.3857-3.4292-0.86597-1.3216-3.0797-3.3952-4.9194-4.6079-1.8397-1.2127-6.509-4.3898-10.376-7.0602-24.656-17.025-60.878-27.337-104.92-29.871-26.956-1.5502-60.26 2.0619-69.039 7.4879-1.6374 1.0119-4.3004 1.8399-5.9178 1.8399-1.6174 0-5.1536 1.0757-7.8581 2.3905-2.7045 1.3148-7.7526 2.9939-11.218 3.7313-3.4654 0.73748-9.5826 2.874-13.594 4.7478-6.7074 3.1333-10.824 5.159-26.493 13.037-3.0768 1.5469-7.1874 4.3284-9.1346 6.1811-4.7713 4.5397-8.8704 7.3387-15.661 10.694-8.1044 4.0044-8.3221 6.8192-0.96467 12.469 6.1698 4.7375 8.8157 9.7244 8.8458 16.672 0.0275 6.3587 1.254 7.5437 4.5285 4.375zm292.28 0.67689c1.3941-0.53005 2.3144-1.1841 2.0451-1.4534s-1.9099 0.12992-3.6456 0.88725c-3.5886 1.5657-2.2624 2.0349 1.6006 0.56619zm-261.6-8.6843c9.6956-5.7184 31.46-16.602 33.199-16.602 0.64776 0 2.5071-0.60579 4.1319-1.3462 3.5826-1.6326 14.357-4.7593 20.767-6.0263 2.5781-0.50964 7.6246-1.5872 11.214-2.3947 18.606-4.1849 47.879-3.9856 73.629 0.50151 15.135 2.6373 47.046 14.419 55.353 20.437 3.8929 2.82 8.6659 3.7937 9.7778 1.9946 0.30467-0.49297-0.61965-1.635-2.054-2.5379-1.4344-0.90289-3.863-2.6615-5.3968-3.908-6.4133-5.2117-35.522-16.748-52.055-20.631-5.8789-1.3806-24.124-4.1148-35.156-5.2686-5.7658-0.60296-31.266 0.88765-37.031 2.1647-21.12 4.6781-27.483 6.2622-32.344 8.0525-3.0938 1.1394-7.5234 2.6594-9.8438 3.3778-4.9009 1.5173-26.208 12.282-30.414 15.365-1.5768 1.156-5.1873 3.2813-8.0232 4.7228-6.1216 3.1117-9.5382 5.6456-8.7182 6.4656 1.4748 1.4748 5.1684 0.23048 12.964-4.3673zm293.91 0.32213c-1.147-2.1431-2.8388-2.5761-2.8388-0.72648 0 0.65871 0.73173 2.2407 1.6261 3.5156 1.9565 2.789 2.9613 0.47812 1.2127-2.7891zm-50.001-7.5491c1.3365-3.5408 4.3748-3.7333 7.4003-0.46875 3.5738 3.8562 12.739 1.8124 13.969-3.1148 0.3445-1.3806 1.2775-3.2328 2.0733-4.1159 4.6818-5.1957-9.6568-9.7113-18.76-5.9079-3.8757 1.6194-5.9341 4.2207-7.2802 9.2003-1.6259 6.0146 0.57862 9.7551 2.5973 4.407zm38.752-3.6978c-1.0481-1.9584-2.7244-3.2932-3.35-2.6676-0.21165 0.21164 0.26222 1.3086 1.053 2.4376 1.8139 2.5897 3.6587 2.7744 2.297 0.23003zm-341.8-10.863c1.789-1.3531 1.787-1.3764-0.11959-1.3764-1.0667 0-2.4646 0.63281-3.1065 1.4062-1.5842 1.9088 0.69076 1.8878 3.2261-0.02981zm13.461-10.001c1.7123-1.7123 1.3538-2.625-1.0312-2.625-2.1324 0-4.4062 1.5481-4.4062 3 0 1.1691 4.1818 0.88074 5.4375-0.375zm302.06-1.7491c0-2.689-5.0583-7.4384-7.9222-7.4384-1.3624 0-0.276 3.6409 1.5941 5.3423 3.072 2.7949 6.3281 3.8734 6.3281 2.0961zm-286.17-10.241c3.7923-2.3122 4.0598-4.2126 0.46875-3.3297-3.192 0.78479-6.7969 3.054-6.7969 4.2785 0 1.4986 3.0687 1.0385 6.3281-0.94884zm267.23-4.3734c-1.7192-1.7192-2.9824-2.2611-4.1847-1.7953-1.5359 0.59506-1.3811 0.97299 1.4308 3.4943 4.1148 3.6896 6.6057 2.1528 2.7539-1.699zm-250.08-5.5047c3.4709-1.7949 3.5558-3.2614 0.18781-3.2434-3.0414 0.0163-6.9572 1.8436-7.5041 3.5018-0.54599 1.6553 3.9206 1.4975 7.3163-0.25845zm230.95-5.7649c-3.2264-2.5817-5.3115-2.8117-4.8878-0.53915 0.38859 2.0843 6.6976 5.4107 7.2316 3.8128 0.20279-0.60678-0.8519-2.0799-2.3438-3.2737zm-212.38-3.209c4.864-1.6956 3.8703-4.039-1.4062-3.3157-4.2984 0.58916-6.8915 1.9145-6.8915 3.5222 0 1.1463 4.7566 1.0279 8.2976-0.2065zm193.26-4.0739c0-1.6607-3.5659-4.2719-5.8336-4.2719-2.7835 0-1.8634 2.8174 1.3805 4.2273 3.8918 1.6915 4.4531 1.6972 4.4531 0.0446zm-171.22-4.248c1.5545-1.5335-0.4827-2.8364-4.4351-2.8364-4.4685 0-7.8482 1.8701-6.7094 3.7126 0.80093 1.2959 9.6477 0.60037 11.145-0.87625zm151.53-2.8173c0-1.2063-6.9032-4.7066-9.2823-4.7066-2.3341 0-3.2509 1.373-1.723 2.5804 2.9833 2.3574 11.005 3.9072 11.005 2.1262zm-133.31-2.1967c2.7325-0.63837 4.9474-1.4642 4.9219-1.8353-0.0255-0.37103-0.0464-1.0965-0.0464-1.6121 0-1.2587-8.3564-1.1951-12.048 0.09172-7.8371 2.732-1.9496 5.4867 7.1721 3.3557zm23.391-4.8581c5.7649-1.1603 3.3546-3.4931-3.6091-3.4931-6.0991 0-8.8233 2.0157-4.9463 3.66 1.4828 0.62886 3.3288 0.98655 4.1023 0.79487 0.77344-0.19168 2.7773-0.62447 4.4531-0.96174zm85.513 0.08693c-1.563-1.5073-8.3146-3.5296-9.447-2.8298-1.3094 0.80924 0.18528 3.0911 2.2941 3.5023 5.2251 1.019 8.5799 0.70352 7.1529-0.67258zm-63.764-2.8373c0.92582-1.1155 0.50019-1.5339-2.4633-2.4213-4.6987-1.4069-10.145-0.89789-10.145 0.94811 0 2.5064 10.712 3.7579 12.608 1.4731zm43.173 0.0055c0-1.4825-1.8261-2.217-6.0938-2.4513-5.7318-0.31456-6.8695 0.6262-3.0469 2.5194 3.2282 1.5988 9.1406 1.5547 9.1406-0.06816zm-22.5-1.3189c0-1.3448-4.602-2.963-8.4263-2.963-4.1184 0-5.563 1.2796-3.0778 2.7264 1.9922 1.1598 11.504 1.3555 11.504 0.23661z"/></svg>
